<svg width="26" height="26" viewBox="0 0 26 26" fill="none" xmlns="http://www.w3.org/2000/svg">
<path d="M11.9167 22.75H5.41667C4.82083 22.75 4.31058 22.538 3.88592 22.1141C3.46197 21.6894 3.25 21.1792 3.25 20.5833V5.41667C3.25 4.82083 3.46197 4.31058 3.88592 3.88592C4.31058 3.46197 4.82083 3.25 5.41667 3.25H11.9167V22.75ZM9.75 20.5833V5.41667H5.41667V20.5833H9.75ZM14.0833 11.9167V3.25H20.5833C21.1792 3.25 21.6894 3.46197 22.1141 3.88592C22.538 4.31058 22.75 4.82083 22.75 5.41667V11.9167H14.0833ZM16.25 9.75H20.5833V5.41667H16.25V9.75ZM14.0833 22.75V14.0833H22.75V20.5833C22.75 21.1792 22.538 21.6894 22.1141 22.1141C21.6894 22.538 21.1792 22.75 20.5833 22.75H14.0833ZM16.25 20.5833H20.5833V16.25H16.25V20.5833Z" fill="#C9C9C9"/>
</svg>
