<svg width="26" height="26" viewBox="0 0 26 26" fill="none" xmlns="http://www.w3.org/2000/svg">
<path d="M4.33333 23.8333C4.02639 23.8333 3.76928 23.7293 3.562 23.5213C3.354 23.3141 3.25 23.0569 3.25 22.75V17.3333C3.25 16.7375 3.46197 16.2273 3.88592 15.8026C4.31058 15.3786 4.82083 15.1667 5.41667 15.1667V10.8333C5.41667 10.2375 5.629 9.72725 6.05367 9.30258C6.47761 8.87864 6.9875 8.66667 7.58333 8.66667H11.9167V7.09584C11.5917 6.87917 11.3299 6.61736 11.1312 6.31042C10.9326 6.00347 10.8333 5.63333 10.8333 5.2C10.8333 4.92917 10.8875 4.66267 10.9958 4.4005C11.1042 4.13906 11.2667 3.9 11.4833 3.68333L13 2.16667L14.5167 3.68333C14.7333 3.9 14.8958 4.13906 15.0042 4.4005C15.1125 4.66267 15.1667 4.92917 15.1667 5.2C15.1667 5.63333 15.0674 6.00347 14.8688 6.31042C14.6701 6.61736 14.4083 6.87917 14.0833 7.09584V8.66667H18.4167C19.0125 8.66667 19.5228 8.87864 19.9474 9.30258C20.3714 9.72725 20.5833 10.2375 20.5833 10.8333V15.1667C21.1792 15.1667 21.6894 15.3786 22.1141 15.8026C22.538 16.2273 22.75 16.7375 22.75 17.3333V22.75C22.75 23.0569 22.646 23.3141 22.438 23.5213C22.2307 23.7293 21.9736 23.8333 21.6667 23.8333H4.33333ZM7.58333 15.1667H18.4167V10.8333H7.58333V15.1667ZM5.41667 21.6667H20.5833V17.3333H5.41667V21.6667Z" fill="#C9C9C9"/>
</svg>
