<svg width="26" height="26" viewBox="0 0 26 26" fill="none" xmlns="http://www.w3.org/2000/svg">
<g clip-path="url(#clip0_63_194)">
<path d="M4.33334 21.6667C3.73751 21.6667 3.22762 21.4547 2.80367 21.0308C2.37901 20.6061 2.16667 20.0958 2.16667 19.5V6.5C2.16667 5.90417 2.37901 5.39428 2.80367 4.97033C3.22762 4.54567 3.73751 4.33333 4.33334 4.33333H21.6667C22.2625 4.33333 22.7728 4.54567 23.1974 4.97033C23.6214 5.39428 23.8333 5.90417 23.8333 6.5V13H4.33334V19.5H15.1667V21.6667H4.33334ZM4.33334 8.66667H21.6667V6.5H4.33334V8.66667ZM20.5833 23.8333V20.5833H17.3333V18.4167H20.5833V15.1667H22.75V18.4167H26V20.5833H22.75V23.8333H20.5833Z" fill="#C9C9C9"/>
</g>
<defs>
<clipPath id="clip0_63_194">
<rect width="26" height="26" fill="white"/>
</clipPath>
</defs>
</svg>
