<svg width="26" height="26" viewBox="0 0 26 26" fill="none" xmlns="http://www.w3.org/2000/svg">
<path d="M22.75 4.33333H3.24999C2.67536 4.33333 2.12426 4.56161 1.71793 4.96793C1.3116 5.37426 1.08333 5.92536 1.08333 6.5V20.5833C1.08333 21.158 1.3116 21.7091 1.71793 22.1154C2.12426 22.5217 2.67536 22.75 3.24999 22.75H22.75C23.3246 22.75 23.8757 22.5217 24.2821 22.1154C24.6884 21.7091 24.9167 21.158 24.9167 20.5833V6.5C24.9167 5.92536 24.6884 5.37426 24.2821 4.96793C23.8757 4.56161 23.3246 4.33333 22.75 4.33333ZM3.24999 20.5833V6.5H11.9167V20.5833H3.24999ZM22.75 20.5833H14.0833V6.5H22.75V20.5833ZM15.1667 10.2917H21.6667V11.9167H15.1667V10.2917ZM15.1667 13H21.6667V14.625H15.1667V13ZM15.1667 15.7083H21.6667V17.3333H15.1667V15.7083Z" fill="#C9C9C9"/>
</svg>
