<svg width="26" height="26" viewBox="0 0 26 26" fill="none" xmlns="http://www.w3.org/2000/svg">
<path d="M18.4167 16.25C17.6583 16.25 17.0174 15.9882 16.4937 15.4646C15.9701 14.941 15.7083 14.3 15.7083 13.5417C15.7083 12.7833 15.9701 12.1424 16.4937 11.6187C17.0174 11.0951 17.6583 10.8333 18.4167 10.8333C19.175 10.8333 19.816 11.0951 20.3396 11.6187C20.8632 12.1424 21.125 12.7833 21.125 13.5417C21.125 14.3 20.8632 14.941 20.3396 15.4646C19.816 15.9882 19.175 16.25 18.4167 16.25ZM13 21.6667V20.15C13 19.7167 13.1127 19.3151 13.338 18.9453C13.564 18.5748 13.8847 18.3083 14.3 18.1458C14.95 17.875 15.6227 17.6721 16.3182 17.537C17.013 17.4012 17.7125 17.3333 18.4167 17.3333C19.1208 17.3333 19.8207 17.4012 20.5162 17.537C21.2109 17.6721 21.8833 17.875 22.5333 18.1458C22.9486 18.3083 23.2693 18.5748 23.4953 18.9453C23.7207 19.3151 23.8333 19.7167 23.8333 20.15V21.6667H13ZM10.8333 13C9.64166 13 8.62152 12.5757 7.77291 11.7271C6.9243 10.8785 6.49999 9.85833 6.49999 8.66667C6.49999 7.475 6.9243 6.45486 7.77291 5.60625C8.62152 4.75764 9.64166 4.33333 10.8333 4.33333C12.025 4.33333 13.0451 4.75764 13.8937 5.60625C14.7424 6.45486 15.1667 7.475 15.1667 8.66667C15.1667 9.85833 14.7424 10.8785 13.8937 11.7271C13.0451 12.5757 12.025 13 10.8333 13ZM2.16666 21.6667V18.6333C2.16666 18.0194 2.32013 17.455 2.62707 16.9401C2.93402 16.4259 3.35832 16.0333 3.89999 15.7625C4.98332 15.2208 6.10746 14.8056 7.27241 14.5167C8.43663 14.2278 9.6236 14.0833 10.8333 14.0833C11.4653 14.0833 12.0972 14.1375 12.7292 14.2458C13.3611 14.3542 13.993 14.4806 14.625 14.625L13.7042 15.5458L12.7833 16.4667C12.4583 16.3764 12.1333 16.3175 11.8083 16.2901C11.4833 16.2634 11.1583 16.25 10.8333 16.25C9.7861 16.25 8.76163 16.3764 7.75991 16.6292C6.75746 16.8819 5.79582 17.2431 4.87499 17.7125C4.69443 17.8028 4.55902 17.9292 4.46874 18.0917C4.37846 18.2542 4.33332 18.4347 4.33332 18.6333V19.5H10.8333V21.6667H2.16666ZM10.8333 10.8333C11.4292 10.8333 11.9394 10.621 12.3641 10.1963C12.788 9.77239 13 9.2625 13 8.66667C13 8.07083 12.788 7.56094 12.3641 7.137C11.9394 6.71233 11.4292 6.5 10.8333 6.5C10.2375 6.5 9.7276 6.71233 9.30366 7.137C8.87899 7.56094 8.66666 8.07083 8.66666 8.66667C8.66666 9.2625 8.87899 9.77239 9.30366 10.1963C9.7276 10.621 10.2375 10.8333 10.8333 10.8333Z" fill="#C9C9C9"/>
</svg>
