<svg fill="#fe6700" height="200px" width="200px" version="1.1" id="Layer_1" xmlns="http://www.w3.org/2000/svg" xmlns:xlink="http://www.w3.org/1999/xlink" viewBox="0 0 512.003 512.003" xml:space="preserve" stroke="#fe6700"><g id="SVGRepo_bgCarrier" stroke-width="0"></g><g id="SVGRepo_tracerCarrier" stroke-linecap="round" stroke-linejoin="round"></g><g id="SVGRepo_iconCarrier"> <g> <g> <path d="M408.129,1.406c-34.538,0-62.636,28.099-62.636,62.637s28.098,62.637,62.636,62.637s62.637-28.099,62.637-62.637 S442.666,1.406,408.129,1.406z M408.129,93.296c-16.129,0-29.251-13.122-29.251-29.252s13.121-29.252,29.251-29.252 c16.129,0,29.252,13.122,29.252,29.252S424.258,93.296,408.129,93.296z"></path> </g> </g> <g> <g> <path d="M105.172,1.407c-34.538,0-62.637,28.099-62.637,62.637c0,34.538,28.099,62.636,62.637,62.636 c34.538,0,62.637-28.099,62.637-62.637S139.71,1.407,105.172,1.407z M105.172,93.296c-16.129,0-29.251-13.122-29.251-29.253 s13.121-29.251,29.251-29.251s29.252,13.122,29.252,29.252S121.302,93.296,105.172,93.296z"></path> </g> </g> <g> <g> <path d="M468.147,136.876H348.112c-5.342,0-11.038,1.045-16.352,3.133c-5.297-2.079-11.478-3.133-15.092-3.133H196.635 c-5.247,0-10.951,1.02-16.366,3.159c-5.379-2.115-11.491-3.159-15.078-3.159c-0.513,0-120.182-0.008-120.695,0.013 C19.911,137.352,0,157.581,0,182.234v131.621c0,18.083,14.712,32.794,32.795,32.794h5.041l5.069,104.191 c1.63,33.508,29.187,59.758,62.736,59.758c33.024,0,60.151-25.839,61.755-58.823l5.115-105.126c3.926,0,11.342,0,16.806,0 l5.069,104.191c1.63,33.508,29.187,59.758,62.735,59.758c33.025,0,60.152-25.839,61.755-58.823l5.115-105.126 c3.953,0,11.434,0,16.806,0l5.069,104.191c1.63,33.508,29.187,59.758,62.735,59.758c33.024,0,60.151-25.838,61.755-58.823 l5.115-105.126h3.739c18.083,0,32.795-14.712,32.795-32.794V182.234C512,156.214,490.224,136.876,468.147,136.876z M151.477,182.234v131.621c0,0.071,0,0.141,0,0.213c-6.439,2.08-11.195,7.971-11.541,15.079l-5.887,121.007 c-0.738,15.175-13.217,27.061-28.409,27.061c-15.716,0-28.626-12.297-29.39-27.995l-5.841-120.072 c-0.433-8.893-7.769-15.881-16.672-15.881H33.385V182.234c0-6.018,4.558-11.773,12.197-11.974h35.026l9.166,9.166l-7.307,81.743 c-0.253,2.827,0.509,5.652,2.149,7.969l15.534,21.949c1.004,1.419,2.634,2.261,4.371,2.261c1.738,0,3.367-0.844,4.371-2.261 l15.534-21.949c1.639-2.317,2.401-5.141,2.149-7.969l-7.307-81.743l9.166-9.166h24.659 C152.023,174.141,151.477,178.421,151.477,182.234z M327.136,313.265h-19.049c-8.903,0-16.24,6.989-16.672,15.881l-5.887,121.007 c-0.738,15.175-13.217,27.061-28.409,27.061c-15.716,0-28.625-12.297-29.389-27.995l-5.841-120.072 c-0.433-8.893-7.769-15.881-16.672-15.881h-20.353V182.234c0-5.971,4.568-11.773,12.197-11.974h35.026l9.166,9.166l-7.307,81.743 c-0.253,2.827,0.509,5.652,2.149,7.969l15.534,21.949c1.004,1.419,2.634,2.261,4.371,2.261c1.738,0,3.367-0.844,4.371-2.261 l15.534-21.949c1.639-2.317,2.401-5.141,2.149-7.969l-7.307-81.743l9.166-9.166c0.535,0,35.357-0.01,35.891,0.018 c6.408,0.331,11.332,5.681,11.332,11.956V313.265z M478.616,313.265h-0.001h-19.049c-8.904,0-16.241,6.989-16.672,15.881 l-5.887,121.007c-0.738,15.175-13.217,27.061-28.409,27.061c-15.716,0-28.625-12.297-29.389-27.995l-5.841-120.072 c-0.368-7.578-5.751-13.773-12.844-15.439V182.234c0-4-0.55-8.092-1.608-11.974h24.651l9.166,9.166l-7.307,81.743 c-0.253,2.827,0.509,5.652,2.149,7.969l15.534,21.949c1.004,1.419,2.634,2.261,4.371,2.261c1.738,0,3.367-0.844,4.371-2.261 l15.534-21.949c1.639-2.317,2.401-5.141,2.149-7.969l-7.307-81.743l9.166-9.166c0.535,0,35.357-0.01,35.891,0.018 c6.354,0.328,11.332,5.58,11.332,11.956V313.265z"></path> </g> </g> <g> <g> <path d="M256.65,1.406c-34.538,0-62.637,28.099-62.637,62.637s28.099,62.637,62.637,62.637c34.538,0,62.637-28.099,62.637-62.637 S291.188,1.406,256.65,1.406z M256.65,93.296c-16.129,0-29.252-13.122-29.252-29.252s13.122-29.252,29.252-29.252 s29.252,13.122,29.252,29.252S272.78,93.296,256.65,93.296z"></path> </g> </g> </g></svg>