<svg width="22" height="22" viewBox="0 0 22 22" fill="none" xmlns="http://www.w3.org/2000/svg">
<path opacity="0.5" d="M16.5284 15.2322L20.4545 19.1574L19.1574 20.4545L15.2323 16.5284C13.7718 17.6992 11.9552 18.336 10.0833 18.3333C5.52934 18.3333 1.83334 14.6373 1.83334 10.0833C1.83334 5.52933 5.52934 1.83333 10.0833 1.83333C14.6373 1.83333 18.3333 5.52933 18.3333 10.0833C18.336 11.9552 17.6992 13.7718 16.5284 15.2322ZM14.6896 14.5521C15.8529 13.3557 16.5026 11.7521 16.5 10.0833C16.5 6.53767 13.6281 3.66667 10.0833 3.66667C6.53767 3.66667 3.66667 6.53767 3.66667 10.0833C3.66667 13.6281 6.53767 16.5 10.0833 16.5C11.7521 16.5026 13.3557 15.8529 14.5521 14.6896L14.6896 14.5521Z" fill="#1D1D1B"/>
</svg>
