<svg width="12" height="8" viewBox="0 0 12 8" fill="none" xmlns="http://www.w3.org/2000/svg">
<path d="M6 2.5C6.39782 2.5 6.77936 2.65804 7.06066 2.93934C7.34196 3.22064 7.5 3.60218 7.5 4C7.5 4.39782 7.34196 4.77936 7.06066 5.06066C6.77936 5.34196 6.39782 5.5 6 5.5C5.60218 5.5 5.22064 5.34196 4.93934 5.06066C4.65804 4.77936 4.5 4.39782 4.5 4C4.5 3.60218 4.65804 3.22064 4.93934 2.93934C5.22064 2.65804 5.60218 2.5 6 2.5ZM6 0.25C8.5 0.25 10.635 1.805 11.5 4C10.635 6.195 8.5 7.75 6 7.75C3.5 7.75 1.365 6.195 0.5 4C1.365 1.805 3.5 0.25 6 0.25ZM1.59 4C1.99413 4.82515 2.62165 5.52037 3.40124 6.00663C4.18083 6.49288 5.0812 6.75066 6 6.75066C6.9188 6.75066 7.81917 6.49288 8.59876 6.00663C9.37835 5.52037 10.0059 4.82515 10.41 4C10.0059 3.17485 9.37835 2.47963 8.59876 1.99337C7.81917 1.50712 6.9188 1.24934 6 1.24934C5.0812 1.24934 4.18083 1.50712 3.40124 1.99337C2.62165 2.47963 1.99413 3.17485 1.59 4Z" fill="#FF6A05"/>
</svg>
